{
    "asset" : {
        "generator" : "Khronos glTF Blender I/O v3.2.40",
        "version" : "2.0"
    },
    "scene" : 0,
    "scenes" : [
        {
            "name" : "Scene",
            "nodes" : [
                0,
                1,
                25
            ]
        }
    ],
    "nodes" : [
        {
            "name" : "Empty",
            "rotation" : [
                0.7071068286895752,
                0,
                0,
                0.7071067094802856
            ],
            "scale" : [
                3.3934319019317627,
                3.3934319019317627,
                3.3934319019317627
            ],
            "translation" : [
                11.094266891479492,
                -0.5427126884460449,
                -3.3918306827545166
            ]
        },
        {
            "mesh" : 0,
            "name" : "Mask",
            "translation" : [
                0,
                -0.0833108052611351,
                1.0354305505752563
            ]
        },
        {
            "name" : "Head",
            "rotation" : [
                0.016933273524045944,
                0,
                4.037207013141142e-09,
                0.9998566508293152
            ],
            "scale" : [
                1,
                0.9999999403953552,
                0.9999999403953552
            ],
            "translation" : [
                0,
                0.4963078200817108,
                0
            ]
        },
        {
            "children" : [
                2
            ],
            "name" : "Neck",
            "rotation" : [
                0.07437621802091599,
                1.425032475647816e-14,
                1.7732672219494816e-08,
                0.9972302913665771
            ],
            "translation" : [
                0,
                1.5627743005752563,
                0
            ]
        },
        {
            "children" : [
                3
            ],
            "name" : "Chest",
            "rotation" : [
                0,
                1.1920927533992653e-07,
                0,
                1
            ],
            "scale" : [
                1,
                0.9999999403953552,
                1
            ],
            "translation" : [
                0,
                1.2041672468185425,
                0
            ]
        },
        {
            "children" : [
                4
            ],
            "name" : "Hip",
            "translation" : [
                0,
                -0.3190310597419739,
                0
            ]
        },
        {
            "name" : "Thumb.L",
            "rotation" : [
                0.4114648997783661,
                0.0012831828789785504,
                -0.05225225165486336,
                0.909925639629364
            ],
            "scale" : [
                1.0000001192092896,
                1,
                1
            ],
            "translation" : [
                0.011491182260215282,
                0.17175187170505524,
                0.19112300872802734
            ]
        },
        {
            "name" : "Finger.L",
            "rotation" : [
                0.0008214832632802427,
                -0.25684306025505066,
                0.0030910775531083345,
                0.9664478898048401
            ],
            "scale" : [
                1,
                1,
                1.0000001192092896
            ],
            "translation" : [
                -2.644956964559242e-07,
                0.4205988943576813,
                -3.730349362740526e-14
            ]
        },
        {
            "children" : [
                6,
                7
            ],
            "name" : "Hand.L",
            "rotation" : [
                -1.1154768220222877e-09,
                7.520861089460595e-08,
                0.004473626613616943,
                0.9999899864196777
            ],
            "scale" : [
                0.9999999403953552,
                0.9999999403953552,
                1
            ],
            "translation" : [
                -3.7997963886482466e-07,
                1.6164324283599854,
                1.509903313490213e-14
            ]
        },
        {
            "children" : [
                8
            ],
            "name" : "Arm.L",
            "rotation" : [
                1.3139387355920462e-09,
                -1.4063878950310027e-07,
                -0.002694864058867097,
                0.9999963641166687
            ],
            "scale" : [
                0.9999998807907104,
                0.9999998807907104,
                1
            ],
            "translation" : [
                -2.0302842074215732e-07,
                1.2530031204223633,
                -3.8191672047105385e-14
            ]
        },
        {
            "children" : [
                9
            ],
            "name" : "Shoulder.L",
            "rotation" : [
                1.6147748738148948e-07,
                1.598230028321268e-07,
                -0.71056067943573,
                0.7036359906196594
            ],
            "scale" : [
                0.9999998807907104,
                0.9999998807907104,
                0.9999999403953552
            ],
            "translation" : [
                0.9173250198364258,
                2.075360059738159,
                2.2351741790771484e-07
            ]
        },
        {
            "name" : "Toe.L",
            "rotation" : [
                0.1621367335319519,
                -4.483291959900271e-09,
                -2.172780568798771e-07,
                0.9867683053016663
            ],
            "scale" : [
                1,
                1,
                0.9999999403953552
            ],
            "translation" : [
                -2.6502007699491514e-08,
                0.42629921436309814,
                -2.0110320519961533e-07
            ]
        },
        {
            "children" : [
                11
            ],
            "name" : "Foot.L",
            "rotation" : [
                0.5770131945610046,
                0.003575838403776288,
                0.004813849925994873,
                0.8167128562927246
            ],
            "scale" : [
                0.9999999403953552,
                0.9999999403953552,
                1
            ],
            "translation" : [
                5.085894372314215e-08,
                2.184631586074829,
                2.1318555809557438e-08
            ]
        },
        {
            "children" : [
                12
            ],
            "name" : "Leg.L",
            "rotation" : [
                -0.05827053263783455,
                -0.0002116894902428612,
                -0.010783675126731396,
                0.9982426166534424
            ],
            "scale" : [
                0.9999999403953552,
                1.0000001192092896,
                1
            ],
            "translation" : [
                6.44431565888226e-08,
                1.9593467712402344,
                2.376339125476079e-10
            ]
        },
        {
            "children" : [
                13
            ],
            "name" : "Thigh.L",
            "rotation" : [
                -0.00011297813762212172,
                -0.02349170669913292,
                -0.9997125267982483,
                0.004813624080270529
            ],
            "scale" : [
                0.9999999403953552,
                0.9999998807907104,
                0.9999998807907104
            ],
            "translation" : [
                0.46085458993911743,
                -0.19636645913124084,
                -1.6074240249963623e-07
            ]
        },
        {
            "name" : "Thumb.R",
            "rotation" : [
                0.4114648997783661,
                -0.0012831828789785504,
                0.05225225165486336,
                0.909925639629364
            ],
            "scale" : [
                1.0000001192092896,
                1,
                1
            ],
            "translation" : [
                -0.011491182260215282,
                0.17175187170505524,
                0.19112300872802734
            ]
        },
        {
            "name" : "Finger.R",
            "rotation" : [
                0.0008214832632802427,
                0.25684306025505066,
                -0.0030910775531083345,
                0.9664478898048401
            ],
            "scale" : [
                1,
                1,
                1.0000001192092896
            ],
            "translation" : [
                2.644956964559242e-07,
                0.4205988943576813,
                -3.730349362740526e-14
            ]
        },
        {
            "children" : [
                15,
                16
            ],
            "name" : "Hand.R",
            "rotation" : [
                -1.1154768220222877e-09,
                -7.520861089460595e-08,
                -0.004473626613616943,
                0.9999899864196777
            ],
            "scale" : [
                0.9999999403953552,
                0.9999999403953552,
                1
            ],
            "translation" : [
                3.7997963886482466e-07,
                1.6164324283599854,
                1.509903313490213e-14
            ]
        },
        {
            "children" : [
                17
            ],
            "name" : "Arm.R",
            "rotation" : [
                1.3139387355920462e-09,
                1.4063878950310027e-07,
                0.002694864058867097,
                0.9999963641166687
            ],
            "scale" : [
                0.9999998807907104,
                0.9999998807907104,
                1
            ],
            "translation" : [
                2.0302842074215732e-07,
                1.2530031204223633,
                -3.8191672047105385e-14
            ]
        },
        {
            "children" : [
                18
            ],
            "name" : "Shoulder.R",
            "rotation" : [
                1.6147748738148948e-07,
                -1.598230028321268e-07,
                0.71056067943573,
                0.7036359906196594
            ],
            "scale" : [
                0.9999998807907104,
                0.9999998807907104,
                0.9999999403953552
            ],
            "translation" : [
                -0.9173250198364258,
                2.075360059738159,
                2.2351741790771484e-07
            ]
        },
        {
            "name" : "Toe.R",
            "rotation" : [
                0.1621367335319519,
                4.483291959900271e-09,
                2.172780568798771e-07,
                0.9867683053016663
            ],
            "scale" : [
                1,
                1,
                0.9999999403953552
            ],
            "translation" : [
                2.6502007699491514e-08,
                0.42629921436309814,
                -2.0110320519961533e-07
            ]
        },
        {
            "children" : [
                20
            ],
            "name" : "Foot.R",
            "rotation" : [
                0.5770131945610046,
                -0.003575838403776288,
                -0.004813849925994873,
                0.8167128562927246
            ],
            "scale" : [
                0.9999999403953552,
                0.9999999403953552,
                1
            ],
            "translation" : [
                -5.085894372314215e-08,
                2.184631586074829,
                2.1318555809557438e-08
            ]
        },
        {
            "children" : [
                21
            ],
            "name" : "Leg.R",
            "rotation" : [
                -0.05827053263783455,
                0.0002116894902428612,
                0.010783675126731396,
                0.9982426166534424
            ],
            "scale" : [
                0.9999999403953552,
                1.0000001192092896,
                1
            ],
            "translation" : [
                -6.44431565888226e-08,
                1.9593467712402344,
                2.376339125476079e-10
            ]
        },
        {
            "children" : [
                22
            ],
            "name" : "Thigh.R",
            "rotation" : [
                -0.00011297813762212172,
                0.02349170669913292,
                0.9997125267982483,
                0.004813624080270529
            ],
            "scale" : [
                0.9999999403953552,
                0.9999998807907104,
                0.9999998807907104
            ],
            "translation" : [
                -0.46085458993911743,
                -0.19636645913124084,
                -1.6074240249963623e-07
            ]
        },
        {
            "mesh" : 1,
            "name" : "Body",
            "skin" : 0
        },
        {
            "children" : [
                24,
                5,
                10,
                14,
                19,
                23
            ],
            "name" : "Armature"
        }
    ],
    "materials" : [
        {
            "doubleSided" : true,
            "name" : "Material",
            "pbrMetallicRoughness" : {
                "baseColorFactor" : [
                    0.800000011920929,
                    0.800000011920929,
                    0.800000011920929,
                    1
                ],
                "metallicFactor" : 0,
                "roughnessFactor" : 0.4000000059604645
            }
        }
    ],
    "meshes" : [
        {
            "name" : "Cube.001",
            "primitives" : [
                {
                    "attributes" : {
                        "POSITION" : 0,
                        "NORMAL" : 1,
                        "TANGENT" : 2,
                        "TEXCOORD_0" : 3
                    },
                    "indices" : 4,
                    "material" : 0
                }
            ]
        },
        {
            "name" : "Cube",
            "primitives" : [
                {
                    "attributes" : {
                        "POSITION" : 5,
                        "NORMAL" : 6,
                        "TEXCOORD_0" : 7,
                        "JOINTS_0" : 8,
                        "JOINTS_1" : 9,
                        "WEIGHTS_1" : 10
                    },
                    "indices" : 11,
                    "material" : 0
                }
            ]
        }
    ],
    "skins" : [
        {
            "inverseBindMatrices" : 12,
            "joints" : [
                5,
                4,
                3,
                2,
                10,
                9,
                8,
                6,
                7,
                14,
                13,
                12,
                11,
                19,
                18,
                17,
                15,
                16,
                23,
                22,
                21,
                20
            ],
            "name" : "Armature"
        }
    ],
    "accessors" : [
        {
            "bufferView" : 0,
            "componentType" : 5126,
            "count" : 88,
            "max" : [
                0.5964741706848145,
                3.875627279281616,
                0.8918660879135132
            ],
            "min" : [
                -0.5964741706848145,
                2.407921075820923,
                0.3688337504863739
            ],
            "type" : "VEC3"
        },
        {
            "bufferView" : 1,
            "componentType" : 5126,
            "count" : 88,
            "type" : "VEC3"
        },
        {
            "bufferView" : 2,
            "componentType" : 5126,
            "count" : 88,
            "type" : "VEC4"
        },
        {
            "bufferView" : 3,
            "componentType" : 5126,
            "count" : 88,
            "type" : "VEC2"
        },
        {
            "bufferView" : 4,
            "componentType" : 5123,
            "count" : 132,
            "type" : "SCALAR"
        },
        {
            "bufferView" : 5,
            "componentType" : 5126,
            "count" : 1046,
            "max" : [
                4.6681060791015625,
                3.9768922328948975,
                0.8593418002128601
            ],
            "min" : [
                -4.6681060791015625,
                -4.628170967102051,
                -0.6028335690498352
            ],
            "type" : "VEC3"
        },
        {
            "bufferView" : 6,
            "componentType" : 5126,
            "count" : 1046,
            "type" : "VEC3"
        },
        {
            "bufferView" : 7,
            "componentType" : 5126,
            "count" : 1046,
            "type" : "VEC2"
        },
        {
            "bufferView" : 8,
            "componentType" : 5121,
            "count" : 1046,
            "type" : "VEC4"
        },
        {
            "bufferView" : 9,
            "componentType" : 5121,
            "count" : 1046,
            "type" : "VEC4"
        },
        {
            "bufferView" : 10,
            "componentType" : 5126,
            "count" : 1046,
            "type" : "VEC4"
        },
        {
            "bufferView" : 11,
            "componentType" : 5123,
            "count" : 1596,
            "type" : "SCALAR"
        },
        {
            "bufferView" : 12,
            "componentType" : 5126,
            "count" : 22,
            "type" : "MAT4"
        }
    ],
    "bufferViews" : [
        {
            "buffer" : 0,
            "byteLength" : 1056,
            "byteOffset" : 0
        },
        {
            "buffer" : 0,
            "byteLength" : 1056,
            "byteOffset" : 1056
        },
        {
            "buffer" : 0,
            "byteLength" : 1408,
            "byteOffset" : 2112
        },
        {
            "buffer" : 0,
            "byteLength" : 704,
            "byteOffset" : 3520
        },
        {
            "buffer" : 0,
            "byteLength" : 264,
            "byteOffset" : 4224
        },
        {
            "buffer" : 0,
            "byteLength" : 12552,
            "byteOffset" : 4488
        },
        {
            "buffer" : 0,
            "byteLength" : 12552,
            "byteOffset" : 17040
        },
        {
            "buffer" : 0,
            "byteLength" : 8368,
            "byteOffset" : 29592
        },
        {
            "buffer" : 0,
            "byteLength" : 4184,
            "byteOffset" : 37960
        },
        {
            "buffer" : 0,
            "byteLength" : 4184,
            "byteOffset" : 42144
        },
        {
            "buffer" : 0,
            "byteLength" : 16736,
            "byteOffset" : 46328
        },
        {
            "buffer" : 0,
            "byteLength" : 3192,
            "byteOffset" : 63064
        },
        {
            "buffer" : 0,
            "byteLength" : 1408,
            "byteOffset" : 66256
        }
    ],
    "buffers" : [
        {
            "byteLength" : 67664,
            "uri" : "PlayerDraftModel-3ed6fcc095f8489b949d7f1481d41a18.bin"
        }
    ]
}
